<?xml version="1.0" encoding="UTF-8"?>
<svg id="_레이어_1" data-name="레이어 1" xmlns="http://www.w3.org/2000/svg" version="1.1" viewBox="0 0 500 500">
  <defs>
    <style>
      .cls-1 {
        fill: #31ad6b;
      }

      .cls-1, .cls-2, .cls-3 {
        stroke-width: 0px;
      }

      .cls-2 {
        fill: #1cc65f;
      }

      .cls-3 {
        fill: #fff;
      }
    </style>
  </defs>
  <g>
    <circle class="cls-2" cx="250" cy="250" r="227" transform="translate(-103.6 250) rotate(-45)"/>
    <path class="cls-3" d="M404,228.1c0-69.2-69.4-125.5-154.7-125.5s-154.7,56.3-154.7,125.5,55,114,129.4,123.9c5,1.1,11.9,3.3,13.6,7.6,1.6,3.9,1,10,.5,14,0,0-1.8,10.9-2.2,13.2-.7,3.9-3.1,15.3,13.4,8.3,16.5-7,89.1-52.5,121.5-89.8h0c22.4-24.6,33.2-49.5,33.2-77.2"/>
    <g>
      <path class="cls-2" d="M217.8,194.7h-10.9c-1.7,0-3,1.3-3,3v67.4c0,1.7,1.4,3,3,3h10.9c1.7,0,3-1.3,3-3v-67.4c0-1.7-1.4-3-3-3"/>
      <path class="cls-2" d="M292.5,194.7h-10.8c-1.7,0-3,1.3-3,3v40l-30.9-41.7c0-.1-.2-.2-.2-.3,0,0,0,0,0,0,0,0-.1-.1-.2-.2,0,0,0,0,0,0,0,0-.1,0-.2-.1,0,0,0,0,0,0,0,0-.1,0-.2-.1,0,0,0,0,0,0,0,0-.1,0-.2,0,0,0,0,0,0,0,0,0-.1,0-.2,0,0,0,0,0,0,0,0,0-.1,0-.2,0,0,0,0,0-.1,0,0,0-.1,0-.2,0,0,0,0,0-.1,0,0,0-.1,0-.2,0,0,0-.1,0-.2,0,0,0,0,0-.1,0h-10.8c-1.7,0-3,1.3-3,3v67.4c0,1.7,1.4,3,3,3h10.8c1.7,0,3-1.3,3-3v-40l30.9,41.8c.2.3.5.5.8.7,0,0,0,0,0,0,0,0,.1,0,.2.1,0,0,0,0,0,0,0,0,0,0,.1,0,0,0,0,0,.1,0,0,0,0,0,0,0,0,0,.1,0,.2,0,0,0,0,0,0,0,.2,0,.5.1.8.1h10.8c1.7,0,3-1.3,3-3v-67.4c0-1.7-1.3-3-3-3"/>
      <path class="cls-2" d="M191.7,251.2h-29.5v-53.5c0-1.7-1.3-3-3-3h-10.9c-1.7,0-3,1.3-3,3v67.4h0c0,.8.3,1.5.8,2.1,0,0,0,0,0,0,0,0,0,0,0,0,.5.5,1.3.8,2.1.8h43.4c1.7,0,3-1.4,3-3v-10.9c0-1.7-1.3-3-3-3"/>
      <path class="cls-2" d="M352.4,211.6c1.7,0,3-1.3,3-3v-10.8c0-1.7-1.3-3-3-3h-43.4c-.8,0-1.5.3-2.1.8,0,0,0,0,0,0,0,0,0,0,0,0-.5.5-.8,1.3-.8,2.1h0v67.4h0c0,.8.3,1.5.8,2.1,0,0,0,0,0,0,0,0,0,0,0,0,.5.5,1.3.8,2.1.8h43.4c1.7,0,3-1.4,3-3v-10.9c0-1.7-1.3-3-3-3h-29.5v-11.4h29.5c1.7,0,3-1.3,3-3v-10.8c0-1.7-1.3-3-3-3h-29.5v-11.4h29.5Z"/>
    </g>
  </g>
  <g>
    <circle class="cls-1" cx="250" cy="250" r="227" transform="translate(-103.6 250) rotate(-45)"/>
    <g>
      <path class="cls-3" d="M412.6,282.1c-1.1-5.1-1.7-10.4-3.4-15.4-6.8-20.2-20.3-35.1-38.4-45.9-23.7-14-49.5-18.3-76.5-13.9-24.3,4-45.2,14.5-61.7,33.2-22.4,25.3-25.7,60.9-7.3,89.2,18.2,28.2,45.6,41.1,78.1,44.5,15.4,1.6,30.5-.8,45.3-4.7,1.4-.3,3.1-.3,4.3.3,7.4,3.7,14.6,7.5,21.9,11.4,2.7,1.4,5.5,2.9,8.7,4.6-.3-1-.4-1.5-.5-1.9-2.6-8.2-5.2-16.3-7.9-24.4-.5-1.6-.5-2.6,1-3.6,2.1-1.3,4-2.9,5.9-4.5,13.6-11.1,23.6-24.6,28.3-41.6,1.2-4.4,1.8-8.9,2.7-13.4v-12.2c-.2-.6-.3-1.1-.5-1.7ZM283.1,275.9c-7.4,0-13.4-6-13.4-13.4s6-13.4,13.4-13.4,13.4,6,13.4,13.4-6,13.4-13.4,13.4ZM348.3,275.9c-7.4,0-13.4-6-13.4-13.4s6-13.4,13.4-13.4,13.4,6,13.4,13.4-6,13.4-13.4,13.4Z"/>
      <path class="cls-3" d="M209.1,272.4c5-22.2,17.9-39.1,36.1-52.2,21.8-15.6,46.5-21.7,73-21.1,1.7,0,3.4,0,5.1,0,0-.4,0-.6,0-.9-.6-2.2-1-4.5-1.7-6.6-9.1-28.8-28.2-49.1-54.6-62.5-32.3-16.4-66.3-18.7-101-8.4-27.3,8.1-49.6,23.5-65.1,47.7-11.7,18.3-16.3,38.5-13,60.1,3.2,21,13.1,38.6,28.3,53.2,5.4,5.2,11.4,9.8,17.3,14.8-3.7,11-7.5,22.3-11.5,34.2,1.8-.9,2.9-1.5,3.9-2,11.1-5.9,22.2-11.8,33.2-17.8,1.9-1,3.6-1.2,5.7-.6,13.1,4.1,26.6,6,40.4,6.3,2,0,4,0,6.3,0-.4-1.5-.7-2.6-1-3.6-4-13.5-4.5-27.1-1.4-40.8ZM246.8,163.5c9.3,0,16.8,7.5,16.8,16.8s-7.5,16.8-16.8,16.8-16.8-7.5-16.8-16.8,7.5-16.8,16.8-16.8ZM165.1,197c-9.3,0-16.8-7.5-16.8-16.8s7.5-16.8,16.8-16.8,16.8,7.5,16.8,16.8-7.5,16.8-16.8,16.8Z"/>
    </g>
  </g>
</svg>