<?xml version="1.0" encoding="UTF-8"?>
<svg id="_레이어_1" data-name="레이어 1" xmlns="http://www.w3.org/2000/svg" version="1.1" viewBox="0 0 32 32">
  <defs>
    <style>
      .cls-1 {
        fill: #c8ff00;
      }

      .cls-1, .cls-2 {
        stroke-width: 0px;
      }

      .cls-2 {
        fill: #fff;
      }
    </style>
  </defs>
  <g>
    <path class="cls-1" d="M27.6,17.76c0-.33,0-.66,0-.99,0-.66-.3-1.26-.86-1.67-.79-.59-1.63-1.22-2.47-1.85-.41-.31-.89-.47-1.42-.47h-.83c-1.16-2.79-2.85-5.43-5.01-7.86-.64-.72-1.25-1.22-1.93-1.59-.37-.2-.75-.3-1.13-.3-.4,0-.79.11-1.14.34-.36.23-.83.53-1.25.93-1.26,1.17-2.41,2.63-3.62,4.59-2.18,3.54-3.26,6.49-3.5,9.56-.12,1.49.07,2.88.55,4.12.79,2.02,2.2,3.7,4.2,4.98,1.48.95,3.08,1.44,4.74,1.44.33,0,.66-.02.99-.05,1.18-.13,2.3-.5,3.33-1.08.27.14.54.27.82.39.41.17.83.26,1.26.26.41,0,.81-.08,1.21-.23,1.67-.64,3.06-1.69,4.13-3.11,1.16-1.54,1.8-3.28,1.89-5.17.04-.73.03-1.45.02-2.23ZM19.62,26.73c-.49-.21-.94-.45-1.35-.71-1.85-1.18-3.01-2.95-3.46-5.27-.07-.38-.11-.79-.11-1.32,0,0,0-2.1,0-2.61,0-.21.07-.36.24-.48.83-.61,1.66-1.23,2.48-1.86.12-.09.25-.13.41-.13h5.05c.17,0,.31.05.45.15.82.62,1.65,1.24,2.48,1.86.15.11.22.23.22.39,0,.37,0,.73,0,1.09,0,.69.01,1.37-.02,2.06-.08,1.57-.61,3.01-1.57,4.29-.89,1.18-2.05,2.05-3.43,2.58-.22.08-.43.13-.64.13s-.44-.05-.72-.17ZM14.32,4.72c.51.28.99.67,1.5,1.25,1.93,2.16,3.39,4.39,4.47,6.8h-2.47c-.51,0-.97.15-1.37.46-.67.51-1.56,1.18-2.46,1.85-.58.43-.89,1.06-.89,1.77,0,.5,0,2.6,0,2.6,0,.62.05,1.14.14,1.61.47,2.45,1.63,4.39,3.43,5.78-.62.26-1.26.43-1.92.51-.27.03-.54.05-.8.05-1.36,0-2.67-.4-3.89-1.18-1.74-1.12-2.91-2.5-3.58-4.22-.4-1.03-.55-2.15-.45-3.42.22-2.81,1.23-5.54,3.27-8.85,1.13-1.83,2.19-3.19,3.34-4.26.33-.3.72-.56,1.02-.75.08-.05.17-.1.3-.1.11,0,.23.04.37.11Z"/>
    <path class="cls-1" d="M23.48,19.59c.38-.38.38-1.01,0-1.39-.19-.18-.43-.29-.7-.29s-.51.1-.69.29l-2.1,2.04-1-1c-.19-.19-.43-.29-.69-.29s-.51.1-.7.29c-.19.19-.29.43-.29.69s.1.51.29.69l1.72,1.72c.19.19.43.29.7.29s.51-.1.69-.29l2.76-2.76Z"/>
  </g>
  <path class="cls-1" d="M1577.46-330.72c-7.9-28.39-22.41-53.11-41.96-74.98-3.57-3.99-7.52-7.58-12.29-10.17-3.56-1.93-7.15-2.08-10.56.06-2.85,1.79-5.67,3.74-8.14,6.02-9.97,9.25-17.87,20.19-24.95,31.7-12.53,20.34-22.36,41.74-24.27,66.01-.73,9.26.2,18.35,3.59,27.04,5.52,14.16,15.27,24.88,27.91,33.02,11.37,7.32,23.87,10.54,37.38,9.03,10.02-1.12,19.2-4.75,27.36-10.64,18.19-13.14,29.32-30.22,29.23-56.05-.09-5.38-1.14-13.31-3.29-21.04Z"/>
  <path class="cls-2" d="M1563.64-241.15c-2.99,0-5.95-.6-8.79-1.79-22.81-9.51-36.76-26.65-41.45-50.95-.65-3.36-.96-6.99-.97-11.43,0-2.66,0-5.31,0-7.97,0-3.56,0-7.11-.02-10.67-.03-4.91,2.12-9.22,6.07-12.14,6.51-4.81,12.86-9.61,17.67-13.25,2.75-2.08,5.91-3.14,9.39-3.14,2.9,0,5.74.01,8.59.01h19.18c2.78,0,5.56,0,8.33-.02,3.67,0,6.92,1.09,9.77,3.25,6.01,4.56,12.06,9.08,17.7,13.28,3.81,2.84,5.89,6.9,5.85,11.43-.02,2.56,0,5.11.02,7.67.04,5,.08,10.17-.17,15.4-.66,13.4-5.17,25.74-13.42,36.66-7.62,10.09-17.48,17.5-29.31,22.04-2.77,1.06-5.61,1.6-8.43,1.6h0Z"/>
  <path class="cls-1" d="M1604.95-324.59c.01-1.45-.7-2.49-1.83-3.34-5.93-4.42-11.86-8.86-17.76-13.32-1.11-.84-2.28-1.23-3.67-1.22-6,.03-12.01.01-18.01.01-6.04,0-12.08.01-18.12,0-1.27,0-2.35.33-3.37,1.11-5.9,4.47-11.81,8.92-17.76,13.32-1.41,1.04-2.03,2.29-2.02,4.03.04,6.22,0,12.45.02,18.67.01,3.21.18,6.41.79,9.56,4.03,20.88,15.86,35.43,35.48,43.61,3.23,1.35,6.52,1.33,9.79.08,10.09-3.87,18.41-10.12,24.91-18.73,6.95-9.2,10.85-19.58,11.41-31.12.37-7.54.08-15.1.14-22.65Z"/>
  <path class="cls-2" d="M1586.37-314.46c-1.39-1.38-3.23-2.15-5.19-2.15s-3.8.76-5.19,2.15l-14.61,14.61-7.15-7.14c-1.38-1.39-3.23-2.15-5.19-2.15s-3.8.76-5.19,2.15c-1.39,1.39-2.15,3.23-2.15,5.19s.76,3.8,2.15,5.19l12.33,12.33c1.39,1.39,3.23,2.15,5.19,2.15s3.8-.76,5.19-2.15l19.8-19.8c2.86-2.86,2.86-7.52,0-10.38Z"/>
</svg>