<?xml version="1.0" encoding="UTF-8"?>
<svg id="_레이어_1" data-name="레이어 1" xmlns="http://www.w3.org/2000/svg" version="1.1" viewBox="0 0 32 32">
  <defs>
    <style>
      .cls-1 {
        fill: #c8ff00;
      }

      .cls-1, .cls-2 {
        stroke-width: 0px;
      }

      .cls-2 {
        fill: #fff;
      }
    </style>
  </defs>
  <g>
    <path class="cls-1" d="M28.65,12.86c-.03,4.19-1.58,7.43-4.44,10.08-2.14,1.98-4.65,3.36-7.31,4.48-.17.07-.34.18-.52.21-.24.03-.52.08-.74,0-2.65-1.05-5.16-2.37-7.33-4.24-2.31-1.98-3.97-4.38-4.62-7.39-.51-2.33-.49-4.65.46-6.89.79-1.85,2.13-3.15,3.95-3.99,1.04-.47,2.1-.79,3.26-.79,1.66,0,3.14.51,4.44,1.53.14.11.23.15.4.02,2.16-1.65,4.53-1.99,7.07-1.03,1.88.71,3.37,1.87,4.32,3.68.76,1.44,1.05,2.98,1.06,4.33ZM5.16,13.49c.06.44.11,1.26.28,2.05.54,2.64,1.99,4.74,4,6.47,1.92,1.65,4.12,2.81,6.44,3.77.08.03.2.02.29-.01,2.11-.88,4.14-1.93,5.93-3.37,2.56-2.05,4.27-4.6,4.65-7.92.18-1.57.09-3.12-.54-4.59-1.06-2.5-3.87-4.08-6.55-3.68-1.14.17-2.07.75-2.88,1.55-.57.56-1.02.56-1.58,0-1.25-1.27-2.75-1.8-4.51-1.53-1.71.27-3.16,1.02-4.21,2.43-.98,1.32-1.31,2.85-1.34,4.84Z"/>
    <path class="cls-1" d="M15.1,15.13c0-.58,0-1.12,0-1.65,0-.65.36-1.06.91-1.06.55,0,.9.42.9,1.07,0,.53,0,1.07,0,1.64.55,0,1.08,0,1.62,0,.12,0,.25,0,.36.02.45.09.77.51.72.97-.04.45-.42.81-.89.82-.59,0-1.18,0-1.81,0,0,.46,0,.91,0,1.36,0,.16,0,.32,0,.48-.02.49-.41.87-.89.87-.49,0-.9-.38-.91-.89-.01-.59,0-1.18,0-1.82-.15,0-.28,0-.42,0-.47,0-.94,0-1.41,0-.5-.01-.89-.42-.88-.92,0-.48.39-.87.88-.88.6-.01,1.2,0,1.83,0Z"/>
  </g>
  <path class="cls-1" d="M1629.46-278.72c-7.9-28.39-22.41-53.11-41.96-74.98-3.57-3.99-7.52-7.58-12.29-10.17-3.56-1.93-7.15-2.08-10.56.06-2.85,1.79-5.67,3.74-8.14,6.02-9.97,9.25-17.87,20.19-24.95,31.7-12.53,20.34-22.36,41.74-24.27,66.01-.73,9.26.2,18.35,3.59,27.04,5.52,14.16,15.27,24.88,27.91,33.02,11.37,7.32,23.87,10.54,37.38,9.03,10.02-1.12,19.2-4.75,27.36-10.64,18.19-13.14,29.32-30.22,29.23-56.05-.09-5.38-1.14-13.31-3.29-21.04Z"/>
  <path class="cls-2" d="M1615.64-189.15c-2.99,0-5.95-.6-8.79-1.79-22.81-9.51-36.76-26.65-41.45-50.95-.65-3.36-.96-6.99-.97-11.43,0-2.66,0-5.31,0-7.97,0-3.56,0-7.11-.02-10.67-.03-4.91,2.12-9.22,6.07-12.14,6.51-4.81,12.86-9.61,17.67-13.25,2.75-2.08,5.91-3.14,9.39-3.14,2.9,0,5.74.01,8.59.01h19.18c2.78,0,5.56,0,8.33-.02,3.67,0,6.92,1.09,9.77,3.25,6.01,4.56,12.06,9.08,17.7,13.28,3.81,2.84,5.89,6.9,5.85,11.43-.02,2.56,0,5.11.02,7.67.04,5,.08,10.17-.17,15.4-.66,13.4-5.17,25.74-13.42,36.66-7.62,10.09-17.48,17.5-29.31,22.04-2.77,1.06-5.61,1.6-8.43,1.6h0Z"/>
  <path class="cls-1" d="M1656.95-272.59c.01-1.45-.7-2.49-1.83-3.34-5.93-4.42-11.86-8.86-17.76-13.32-1.11-.84-2.28-1.23-3.67-1.22-6,.03-12.01.01-18.01.01-6.04,0-12.08.01-18.12,0-1.27,0-2.35.33-3.37,1.11-5.9,4.47-11.81,8.92-17.76,13.32-1.41,1.04-2.03,2.29-2.02,4.03.04,6.22,0,12.45.02,18.67.01,3.21.18,6.41.79,9.56,4.03,20.88,15.86,35.43,35.48,43.61,3.23,1.35,6.52,1.33,9.79.08,10.09-3.87,18.41-10.12,24.91-18.73,6.95-9.2,10.85-19.58,11.41-31.12.37-7.54.08-15.1.14-22.65Z"/>
  <path class="cls-2" d="M1638.37-262.46c-1.39-1.38-3.23-2.15-5.19-2.15s-3.8.76-5.19,2.15l-14.61,14.61-7.15-7.14c-1.38-1.39-3.23-2.15-5.19-2.15s-3.8.76-5.19,2.15c-1.39,1.39-2.15,3.23-2.15,5.19s.76,3.8,2.15,5.19l12.33,12.33c1.39,1.39,3.23,2.15,5.19,2.15s3.8-.76,5.19-2.15l19.8-19.8c2.86-2.86,2.86-7.52,0-10.38Z"/>
</svg>