<?xml version="1.0" encoding="UTF-8"?>
<svg id="_레이어_1" data-name="레이어 1" xmlns="http://www.w3.org/2000/svg" version="1.1" viewBox="0 0 32 32">
  <defs>
    <style>
      .cls-1 {
        fill: #c8ff00;
      }

      .cls-1, .cls-2 {
        stroke-width: 0px;
      }

      .cls-2 {
        fill: #fff;
      }
    </style>
  </defs>
  <g>
    <path class="cls-1" d="M26.83,8.71c0-.38-.18-.65-.48-.88-1.56-1.16-3.11-2.32-4.66-3.5-.29-.22-.6-.32-.96-.32-1.58,0-3.15,0-4.73,0-1.59,0-3.17,0-4.76,0-.33,0-.62.09-.89.29-1.55,1.17-3.1,2.34-4.66,3.5-.37.27-.53.6-.53,1.06.01,1.63,0,3.27,0,4.9,0,.84.05,1.68.21,2.51,1.06,5.48,4.16,9.3,9.31,11.45.85.35,1.71.35,2.57.02,2.65-1.02,4.83-2.66,6.54-4.92,1.82-2.42,2.85-5.14,3-8.17.1-1.98.02-3.96.04-5.95ZM24.94,14.61c-.16,2.96-1.25,5.55-3.18,7.79-1.37,1.6-3.06,2.77-5.01,3.56-.5.2-.98.22-1.49,0-4.71-2.03-7.43-5.59-8.15-10.67-.14-.99-.09-1.99-.09-2.98,0-.98,0-1.95,0-2.93,0-.17.05-.28.19-.39,1.32-.99,2.65-1.98,3.97-2.97.14-.11.28-.14.45-.14,1.46,0,2.92,0,4.38,0s2.92,0,4.38,0c.16,0,.3.03.43.13,1.32,1,2.64,1.99,3.96,2.98.11.08.2.16.2.32-.02,1.77.06,3.54-.04,5.31Z"/>
    <path class="cls-1" d="M17.48,15.56c-.14-.14-.15-.21,0-.36.74-.72,1.46-1.46,2.2-2.19.21-.21.35-.44.33-.74,0-.17-.04-.33-.13-.47-.32-.53-1.01-.6-1.47-.15-.75.73-1.48,1.47-2.21,2.22-.16.16-.24.17-.41,0-.71-.73-1.45-1.45-2.17-2.18-.26-.27-.57-.4-.94-.31-.72.17-.95,1.03-.41,1.58.73.75,1.47,1.48,2.22,2.21.16.16.17.24,0,.4-.74.72-1.47,1.46-2.2,2.19-.43.44-.42,1.07.02,1.43.39.31.89.28,1.28-.11.74-.73,1.47-1.46,2.19-2.2.16-.16.24-.17.41,0,.72.74,1.46,1.47,2.19,2.2.23.23.5.36.83.31.36-.06.62-.26.74-.61.12-.37.04-.71-.24-.99-.74-.75-1.49-1.49-2.24-2.23Z"/>
  </g>
  <path class="cls-1" d="M1629.46-330.72c-7.9-28.39-22.41-53.11-41.96-74.98-3.57-3.99-7.52-7.58-12.29-10.17-3.56-1.93-7.15-2.08-10.56.06-2.85,1.79-5.67,3.74-8.14,6.02-9.97,9.25-17.87,20.19-24.95,31.7-12.53,20.34-22.36,41.74-24.27,66.01-.73,9.26.2,18.35,3.59,27.04,5.52,14.16,15.27,24.88,27.91,33.02,11.37,7.32,23.87,10.54,37.38,9.03,10.02-1.12,19.2-4.75,27.36-10.64,18.19-13.14,29.32-30.22,29.23-56.05-.09-5.38-1.14-13.31-3.29-21.04Z"/>
  <path class="cls-2" d="M1615.64-241.15c-2.99,0-5.95-.6-8.79-1.79-22.81-9.51-36.76-26.65-41.45-50.95-.65-3.36-.96-6.99-.97-11.43,0-2.66,0-5.31,0-7.97,0-3.56,0-7.11-.02-10.67-.03-4.91,2.12-9.22,6.07-12.14,6.51-4.81,12.86-9.61,17.67-13.25,2.75-2.08,5.91-3.14,9.39-3.14,2.9,0,5.74.01,8.59.01h19.18c2.78,0,5.56,0,8.33-.02,3.67,0,6.92,1.09,9.77,3.25,6.01,4.56,12.06,9.08,17.7,13.28,3.81,2.84,5.89,6.9,5.85,11.43-.02,2.56,0,5.11.02,7.67.04,5,.08,10.17-.17,15.4-.66,13.4-5.17,25.74-13.42,36.66-7.62,10.09-17.48,17.5-29.31,22.04-2.77,1.06-5.61,1.6-8.43,1.6h0Z"/>
  <path class="cls-1" d="M1656.95-324.59c.01-1.45-.7-2.49-1.83-3.34-5.93-4.42-11.86-8.86-17.76-13.32-1.11-.84-2.28-1.23-3.67-1.22-6,.03-12.01.01-18.01.01-6.04,0-12.08.01-18.12,0-1.27,0-2.35.33-3.37,1.11-5.9,4.47-11.81,8.92-17.76,13.32-1.41,1.04-2.03,2.29-2.02,4.03.04,6.22,0,12.45.02,18.67.01,3.21.18,6.41.79,9.56,4.03,20.88,15.86,35.43,35.48,43.61,3.23,1.35,6.52,1.33,9.79.08,10.09-3.87,18.41-10.12,24.91-18.73,6.95-9.2,10.85-19.58,11.41-31.12.37-7.54.08-15.1.14-22.65Z"/>
  <path class="cls-2" d="M1638.37-314.46c-1.39-1.38-3.23-2.15-5.19-2.15s-3.8.76-5.19,2.15l-14.61,14.61-7.15-7.14c-1.38-1.39-3.23-2.15-5.19-2.15s-3.8.76-5.19,2.15c-1.39,1.39-2.15,3.23-2.15,5.19s.76,3.8,2.15,5.19l12.33,12.33c1.39,1.39,3.23,2.15,5.19,2.15s3.8-.76,5.19-2.15l19.8-19.8c2.86-2.86,2.86-7.52,0-10.38Z"/>
</svg>