<?xml version="1.0" encoding="UTF-8"?>
<svg id="_레이어_1" data-name="레이어 1" xmlns="http://www.w3.org/2000/svg" version="1.1" viewBox="0 0 32 32">
  <defs>
    <style>
      .cls-1 {
        fill: #c8ff00;
      }

      .cls-1, .cls-2 {
        stroke-width: 0px;
      }

      .cls-2 {
        fill: #fff;
      }
    </style>
  </defs>
  <g>
    <path class="cls-1" d="M27.9,14.87c0,.48-.35.84-.9.85-.54.01-1.06.12-1.54.37-1.27.67-1.96,1.72-2.03,3.16-.03.63-.49,1.05-1.03.92-.39-.09-.64-.4-.65-.84-.04-1.16-.49-2.11-1.4-2.84-.63-.5-1.36-.75-2.18-.77-.62-.02-1.01-.51-.87-1.06.1-.37.39-.6.81-.61.97-.03,1.82-.36,2.53-1.04.74-.72,1.08-1.61,1.11-2.63.01-.42.29-.72.7-.79.37-.07.74.14.89.49.06.13.07.27.08.41.09,2.01,1.54,3.46,3.57,3.56.54.03.89.35.9.82Z"/>
    <path class="cls-1" d="M11.41,15.72c-.46,0-.82-.37-.83-.87-.01-.44-.07-.87-.24-1.28-.64-1.49-1.77-2.26-3.39-2.33-.43-.02-.76-.3-.83-.7-.06-.38.15-.76.51-.91.14-.06.29-.07.44-.07,1.21-.05,2.16-.58,2.86-1.55.41-.57.63-1.22.65-1.93,0-.15.01-.3.06-.44.13-.36.51-.59.89-.54.4.05.71.38.72.81.03.85.26,1.62.8,2.28.7.86,1.6,1.33,2.71,1.37.25.01.49.04.68.22.26.23.36.59.24.9-.13.33-.36.53-.72.55-.49.02-.98.08-1.43.28-1.43.64-2.19,1.75-2.27,3.32-.03.52-.37.89-.84.88Z"/>
    <path class="cls-1" d="M14.76,16.28c.46,0,.83.35.84.85.03.78.24,1.5.71,2.13.73.98,1.72,1.46,2.94,1.5.42.01.72.27.81.65.08.36-.09.73-.41.91-.17.09-.35.11-.53.11-1.11.04-2.01.51-2.71,1.37-.54.66-.77,1.43-.8,2.28-.01.4-.27.7-.64.79-.35.09-.73-.08-.92-.4-.09-.16-.11-.33-.12-.5-.07-1.81-1.32-3.22-3.11-3.51-.16-.03-.33-.02-.5-.03-.5-.03-.86-.38-.85-.85,0-.47.35-.8.86-.83,1.88-.1,3.25-1.28,3.56-3.09.03-.19.03-.38.04-.57.04-.47.39-.81.83-.82Z"/>
  </g>
  <path class="cls-1" d="M1577.46-278.72c-7.9-28.39-22.41-53.11-41.96-74.98-3.57-3.99-7.52-7.58-12.29-10.17-3.56-1.93-7.15-2.08-10.56.06-2.85,1.79-5.67,3.74-8.14,6.02-9.97,9.25-17.87,20.19-24.95,31.7-12.53,20.34-22.36,41.74-24.27,66.01-.73,9.26.2,18.35,3.59,27.04,5.52,14.16,15.27,24.88,27.91,33.02,11.37,7.32,23.87,10.54,37.38,9.03,10.02-1.12,19.2-4.75,27.36-10.64,18.19-13.14,29.32-30.22,29.23-56.05-.09-5.38-1.14-13.31-3.29-21.04Z"/>
  <path class="cls-2" d="M1563.64-189.15c-2.99,0-5.95-.6-8.79-1.79-22.81-9.51-36.76-26.65-41.45-50.95-.65-3.36-.96-6.99-.97-11.43,0-2.66,0-5.31,0-7.97,0-3.56,0-7.11-.02-10.67-.03-4.91,2.12-9.22,6.07-12.14,6.51-4.81,12.86-9.61,17.67-13.25,2.75-2.08,5.91-3.14,9.39-3.14,2.9,0,5.74.01,8.59.01h19.18c2.78,0,5.56,0,8.33-.02,3.67,0,6.92,1.09,9.77,3.25,6.01,4.56,12.06,9.08,17.7,13.28,3.81,2.84,5.89,6.9,5.85,11.43-.02,2.56,0,5.11.02,7.67.04,5,.08,10.17-.17,15.4-.66,13.4-5.17,25.74-13.42,36.66-7.62,10.09-17.48,17.5-29.31,22.04-2.77,1.06-5.61,1.6-8.43,1.6h0Z"/>
  <path class="cls-1" d="M1604.95-272.59c.01-1.45-.7-2.49-1.83-3.34-5.93-4.42-11.86-8.86-17.76-13.32-1.11-.84-2.28-1.23-3.67-1.22-6,.03-12.01.01-18.01.01-6.04,0-12.08.01-18.12,0-1.27,0-2.35.33-3.37,1.11-5.9,4.47-11.81,8.92-17.76,13.32-1.41,1.04-2.03,2.29-2.02,4.03.04,6.22,0,12.45.02,18.67.01,3.21.18,6.41.79,9.56,4.03,20.88,15.86,35.43,35.48,43.61,3.23,1.35,6.52,1.33,9.79.08,10.09-3.87,18.41-10.12,24.91-18.73,6.95-9.2,10.85-19.58,11.41-31.12.37-7.54.08-15.1.14-22.65Z"/>
  <path class="cls-2" d="M1586.37-262.46c-1.39-1.38-3.23-2.15-5.19-2.15s-3.8.76-5.19,2.15l-14.61,14.61-7.15-7.14c-1.38-1.39-3.23-2.15-5.19-2.15s-3.8.76-5.19,2.15c-1.39,1.39-2.15,3.23-2.15,5.19s.76,3.8,2.15,5.19l12.33,12.33c1.39,1.39,3.23,2.15,5.19,2.15s3.8-.76,5.19-2.15l19.8-19.8c2.86-2.86,2.86-7.52,0-10.38Z"/>
</svg>