<?xml version="1.0" encoding="UTF-8"?>
<svg id="_레이어_1" data-name=" 레이어 1" xmlns="http://www.w3.org/2000/svg" version="1.1" viewBox="0 0 850 850">
  <defs>
    <style>
      .cls-1 {
        fill: #000;
      }

      .cls-1, .cls-2 {
        stroke-width: 0px;
      }

      .cls-2 {
        fill: #fff;
      }
    </style>
  </defs>
  <rect class="cls-2" width="850" height="850"/>
  <path id="qr-path" class="cls-1" d="M80.5,80.5h21v21h-21v-21ZM101.5,80.5h21v21h-21v-21ZM122.4,80.5h21v21h-21v-21ZM143.2,80.5h21v21h-21v-21ZM164.1,80.5h21v21h-21v-21ZM185.1,80.5h21v21h-21v-21ZM205.8,80.5h21v21h-21v-21ZM247.5,80.5h21v21h-21v-21ZM310.2,80.5h21v21h-21v-21ZM331.1,80.5h21v21h-21v-21ZM351.9,80.5h21v21h-21v-21ZM414.5,80.5h21v21h-21v-21ZM456.2,80.5h21v21h-21v-21ZM498.1,80.5h21v21h-21v-21ZM518.9,80.5h21v21h-21v-21ZM539.8,80.5h21v21h-21v-21ZM581.5,80.5h21v21h-21v-21ZM623.2,80.5h21v21h-21v-21ZM644.2,80.5h21v21h-21v-21ZM664.9,80.5h21v21h-21v-21ZM685.9,80.5h21v21h-21v-21ZM706.8,80.5h21v21h-21v-21ZM727.6,80.5h21v21h-21v-21ZM748.5,80.5h21v21h-21v-21ZM80.5,101.5h21v21h-21v-21ZM205.8,101.5h21v21h-21v-21ZM268.5,101.5h21v21h-21v-21ZM289.4,101.5h21v21h-21v-21ZM310.2,101.5h21v21h-21v-21ZM372.8,101.5h21v21h-21v-21ZM414.5,101.5h21v21h-21v-21ZM435.5,101.5h21v21h-21v-21h0ZM456.2,101.5h21v21h-21v-21ZM477.2,101.5h21v21h-21v-21ZM539.8,101.5h21v21h-21v-21ZM581.5,101.5h21v21h-21v-21ZM623.2,101.5h21v21h-21v-21ZM748.5,101.5h21v21h-21v-21ZM80.5,122.4h21v21h-21v-21ZM122.4,122.4h21v21h-21v-21ZM143.2,122.4h21v21h-21v-21ZM164.1,122.4h21v21h-21v-21ZM205.8,122.4h21v21h-21v-21ZM247.5,122.4h21v21h-21v-21ZM331.1,122.4h21v21h-21v-21ZM351.9,122.4h21v21h-21v-21ZM435.5,122.4h21v21h-21v-21h0ZM456.2,122.4h21v21h-21v-21ZM498.1,122.4h21v21h-21v-21ZM518.9,122.4h21v21h-21v-21ZM539.8,122.4h21v21h-21v-21ZM560.6,122.4h21v21h-21v-21ZM581.5,122.4h21v21h-21v-21ZM623.2,122.4h21v21h-21v-21ZM664.9,122.4h21v21h-21v-21ZM685.9,122.4h21v21h-21v-21ZM706.8,122.4h21v21h-21v-21ZM748.5,122.4h21v21h-21v-21ZM80.5,143.2h21v21h-21v-21ZM122.4,143.2h21v21h-21v-21ZM143.2,143.2h21v21h-21v-21ZM164.1,143.2h21v21h-21v-21ZM205.8,143.2h21v21h-21v-21ZM289.4,143.2h21v21h-21v-21ZM331.1,143.2h21v21h-21v-21ZM351.9,143.2h21v21h-21v-21ZM372.8,143.2h21v21h-21v-21ZM393.8,143.2h21v21h-21v-21ZM414.5,143.2h21v21h-21v-21ZM435.5,143.2h21v21h-21v-21h0ZM477.2,143.2h21v21h-21v-21ZM518.9,143.2h21v21h-21v-21ZM539.8,143.2h21v21h-21v-21ZM560.6,143.2h21v21h-21v-21ZM581.5,143.2h21v21h-21v-21ZM623.2,143.2h21v21h-21v-21ZM664.9,143.2h21v21h-21v-21ZM685.9,143.2h21v21h-21v-21ZM706.8,143.2h21v21h-21v-21ZM748.5,143.2h21v21h-21v-21ZM80.5,164.1h21v21h-21v-21ZM122.4,164.1h21v21h-21v-21ZM143.2,164.1h21v21h-21v-21ZM164.1,164.1h21v21h-21v-21ZM205.8,164.1h21v21h-21v-21ZM247.5,164.1h21v21h-21v-21ZM268.5,164.1h21v21h-21v-21ZM372.8,164.1h21v21h-21v-21ZM435.5,164.1h21v21h-21v-21h0ZM456.2,164.1h21v21h-21v-21ZM518.9,164.1h21v21h-21v-21ZM560.6,164.1h21v21h-21v-21ZM623.2,164.1h21v21h-21v-21ZM664.9,164.1h21v21h-21v-21ZM685.9,164.1h21v21h-21v-21ZM706.8,164.1h21v21h-21v-21ZM748.5,164.1h21v21h-21v-21ZM80.5,185.1h21v21h-21v-21ZM205.8,185.1h21v21h-21v-21ZM268.5,185.1h21v21h-21v-21ZM331.1,185.1h21v21h-21v-21ZM351.9,185.1h21v21h-21v-21ZM393.8,185.1h21v21h-21v-21ZM414.5,185.1h21v21h-21v-21ZM498.1,185.1h21v21h-21v-21ZM539.8,185.1h21v21h-21v-21ZM581.5,185.1h21v21h-21v-21ZM623.2,185.1h21v21h-21v-21ZM748.5,185.1h21v21h-21v-21ZM80.5,205.8h21v21h-21v-21ZM101.5,205.8h21v21h-21v-21ZM122.4,205.8h21v21h-21v-21ZM143.2,205.8h21v21h-21v-21ZM164.1,205.8h21v21h-21v-21ZM185.1,205.8h21v21h-21v-21ZM205.8,205.8h21v21h-21v-21ZM247.5,205.8h21v21h-21v-21ZM289.4,205.8h21v21h-21v-21ZM331.1,205.8h21v21h-21v-21ZM372.8,205.8h21v21h-21v-21ZM414.5,205.8h21v21h-21v-21ZM456.2,205.8h21v21h-21v-21ZM498.1,205.8h21v21h-21v-21ZM539.8,205.8h21v21h-21v-21ZM581.5,205.8h21v21h-21v-21ZM623.2,205.8h21v21h-21v-21ZM644.2,205.8h21v21h-21v-21ZM664.9,205.8h21v21h-21v-21ZM685.9,205.8h21v21h-21v-21ZM706.8,205.8h21v21h-21v-21ZM727.6,205.8h21v21h-21v-21ZM748.5,205.8h21v21h-21v-21ZM247.5,226.8h21v21h-21v-21ZM331.1,226.8h21v21h-21v-21ZM393.8,226.8h21v21h-21v-21ZM539.8,226.8h21v21h-21v-21ZM185.1,247.5h21v21h-21v-21ZM205.8,247.5h21v21h-21v-21ZM289.4,247.5h21v21h-21v-21ZM310.2,247.5h21v21h-21v-21ZM393.8,247.5h21v21h-21v-21ZM498.1,247.5h21v21h-21v-21ZM539.8,247.5h21v21h-21v-21ZM560.6,247.5h21v21h-21v-21ZM581.5,247.5h21v21h-21v-21ZM623.2,247.5h21v21h-21v-21ZM664.9,247.5h21v21h-21v-21ZM706.8,247.5h21v21h-21v-21ZM748.5,247.5h21v21h-21v-21ZM80.5,268.5h21v21h-21v-21ZM101.5,268.5h21v21h-21v-21ZM122.4,268.5h21v21h-21v-21ZM164.1,268.5h21v21h-21v-21ZM226.8,268.5h21v21h-21v-21ZM268.5,268.5h21v21h-21v-21ZM393.8,268.5h21v21h-21v-21ZM414.5,268.5h21v21h-21v-21ZM498.1,268.5h21v21h-21v-21ZM539.8,268.5h21v21h-21v-21ZM560.6,268.5h21v21h-21v-21ZM602.5,268.5h21v21h-21v-21ZM644.2,268.5h21v21h-21v-21ZM664.9,268.5h21v21h-21v-21ZM101.5,289.4h21v21h-21v-21ZM122.4,289.4h21v21h-21v-21ZM143.2,289.4h21v21h-21v-21ZM185.1,289.4h21v21h-21v-21ZM205.8,289.4h21v21h-21v-21ZM268.5,289.4h21v21h-21v-21ZM310.2,289.4h21v21h-21v-21ZM331.1,289.4h21v21h-21v-21ZM393.8,289.4h21v21h-21v-21ZM414.5,289.4h21v21h-21v-21ZM456.2,289.4h21v21h-21v-21ZM477.2,289.4h21v21h-21v-21ZM498.1,289.4h21v21h-21v-21ZM518.9,289.4h21v21h-21v-21ZM539.8,289.4h21v21h-21v-21ZM602.5,289.4h21v21h-21v-21ZM644.2,289.4h21v21h-21v-21ZM685.9,289.4h21v21h-21v-21ZM706.8,289.4h21v21h-21v-21ZM727.6,289.4h21v21h-21v-21ZM80.5,310.2h21v21h-21v-21ZM143.2,310.2h21v21h-21v-21ZM164.1,310.2h21v21h-21v-21ZM185.1,310.2h21v21h-21v-21ZM226.8,310.2h21v21h-21v-21ZM289.4,310.2h21v21h-21v-21ZM310.2,310.2h21v21h-21v-21ZM351.9,310.2h21v21h-21v-21ZM393.8,310.2h21v21h-21v-21ZM414.5,310.2h21v21h-21v-21ZM435.5,310.2h21v21h-21v-21h0ZM477.2,310.2h21v21h-21v-21ZM498.1,310.2h21v21h-21v-21ZM560.6,310.2h21v21h-21v-21ZM581.5,310.2h21v21h-21v-21ZM602.5,310.2h21v21h-21v-21ZM644.2,310.2h21v21h-21v-21ZM706.8,310.2h21v21h-21v-21ZM101.5,331.1h21v21h-21v-21ZM205.8,331.1h21v21h-21v-21ZM226.8,331.1h21v21h-21v-21ZM247.5,331.1h21v21h-21v-21ZM268.5,331.1h21v21h-21v-21ZM310.2,331.1h21v21h-21v-21ZM351.9,331.1h21v21h-21v-21ZM393.8,331.1h21v21h-21v-21ZM414.5,331.1h21v21h-21v-21ZM518.9,331.1h21v21h-21v-21ZM539.8,331.1h21v21h-21v-21ZM560.6,331.1h21v21h-21v-21ZM581.5,331.1h21v21h-21v-21ZM602.5,331.1h21v21h-21v-21ZM623.2,331.1h21v21h-21v-21ZM644.2,331.1h21v21h-21v-21ZM685.9,331.1h21v21h-21v-21ZM101.5,351.9h21v21h-21v-21ZM122.4,351.9h21v21h-21v-21ZM143.2,351.9h21v21h-21v-21ZM289.4,351.9h21v21h-21v-21ZM331.1,351.9h21v21h-21v-21ZM372.8,351.9h21v21h-21v-21ZM414.5,351.9h21v21h-21v-21ZM477.2,351.9h21v21h-21v-21ZM498.1,351.9h21v21h-21v-21ZM518.9,351.9h21v21h-21v-21ZM560.6,351.9h21v21h-21v-21ZM623.2,351.9h21v21h-21v-21ZM644.2,351.9h21v21h-21v-21ZM685.9,351.9h21v21h-21v-21ZM748.5,351.9h21v21h-21v-21ZM80.5,372.8h21v21h-21v-21ZM101.5,372.8h21v21h-21v-21ZM122.4,372.8h21v21h-21v-21ZM164.1,372.8h21v21h-21v-21ZM185.1,372.8h21v21h-21v-21ZM205.8,372.8h21v21h-21v-21ZM226.8,372.8h21v21h-21v-21ZM268.5,372.8h21v21h-21v-21ZM331.1,372.8h21v21h-21v-21ZM351.9,372.8h21v21h-21v-21ZM372.8,372.8h21v21h-21v-21ZM393.8,372.8h21v21h-21v-21ZM456.2,372.8h21v21h-21v-21ZM477.2,372.8h21v21h-21v-21ZM498.1,372.8h21v21h-21v-21ZM539.8,372.8h21v21h-21v-21ZM602.5,372.8h21v21h-21v-21ZM623.2,372.8h21v21h-21v-21ZM644.2,372.8h21v21h-21v-21ZM706.8,372.8h21v21h-21v-21ZM727.6,372.8h21v21h-21v-21ZM185.1,393.8h21v21h-21v-21ZM226.8,393.8h21v21h-21v-21ZM393.8,393.8h21v21h-21v-21ZM435.5,393.8h21v21h-21v-21h0ZM456.2,393.8h21v21h-21v-21ZM477.2,393.8h21v21h-21v-21ZM602.5,393.8h21v21h-21v-21ZM685.9,393.8h21v21h-21v-21ZM706.8,393.8h21v21h-21v-21ZM727.6,393.8h21v21h-21v-21ZM748.5,393.8h21v21h-21v-21ZM185.1,414.5h21v21h-21v-21ZM205.8,414.5h21v21h-21v-21ZM226.8,414.5h21v21h-21v-21ZM289.4,414.5h21v21h-21v-21ZM310.2,414.5h21v21h-21v-21ZM351.9,414.5h21v21h-21v-21ZM372.8,414.5h21v21h-21v-21ZM414.5,414.5h21v21h-21v-21ZM456.2,414.5h21v21h-21v-21ZM477.2,414.5h21v21h-21v-21ZM560.6,414.5h21v21h-21v-21ZM602.5,414.5h21v21h-21v-21ZM644.2,414.5h21v21h-21v-21ZM664.9,414.5h21v21h-21v-21ZM685.9,414.5h21v21h-21v-21ZM101.5,435.5h21v21h-21v-21h0ZM122.4,435.5h21v21h-21v-21h0ZM143.2,435.5h21v21h-21v-21h0ZM164.1,435.5h21v21h-21v-21h0ZM226.8,435.5h21v21h-21v-21h0ZM247.5,435.5h21v21h-21v-21h0ZM372.8,435.5h21v21h-21v-21h0ZM393.8,435.5h21v21h-21v-21h0ZM414.5,435.5h21v21h-21v-21h0ZM435.5,435.5h21v21h-21v-21h0ZM456.2,435.5h21v21h-21v-21h0ZM477.2,435.5h21v21h-21v-21h0ZM518.9,435.5h21v21h-21v-21h0ZM560.6,435.5h21v21h-21v-21h0ZM581.5,435.5h21v21h-21v-21h0ZM602.5,435.5h21v21h-21v-21h0ZM623.2,435.5h21v21h-21v-21h0ZM748.5,435.5h21v21h-21v-21h0ZM80.5,456.2h21v21h-21v-21ZM101.5,456.2h21v21h-21v-21ZM122.4,456.2h21v21h-21v-21ZM164.1,456.2h21v21h-21v-21ZM205.8,456.2h21v21h-21v-21ZM289.4,456.2h21v21h-21v-21ZM310.2,456.2h21v21h-21v-21ZM331.1,456.2h21v21h-21v-21ZM372.8,456.2h21v21h-21v-21ZM393.8,456.2h21v21h-21v-21ZM414.5,456.2h21v21h-21v-21ZM435.5,456.2h21v21h-21v-21h0ZM456.2,456.2h21v21h-21v-21ZM477.2,456.2h21v21h-21v-21ZM560.6,456.2h21v21h-21v-21ZM602.5,456.2h21v21h-21v-21ZM644.2,456.2h21v21h-21v-21ZM664.9,456.2h21v21h-21v-21ZM685.9,456.2h21v21h-21v-21ZM706.8,456.2h21v21h-21v-21ZM748.5,456.2h21v21h-21v-21ZM101.5,477.2h21v21h-21v-21ZM122.4,477.2h21v21h-21v-21ZM185.1,477.2h21v21h-21v-21ZM226.8,477.2h21v21h-21v-21ZM289.4,477.2h21v21h-21v-21ZM331.1,477.2h21v21h-21v-21ZM351.9,477.2h21v21h-21v-21ZM372.8,477.2h21v21h-21v-21ZM393.8,477.2h21v21h-21v-21ZM456.2,477.2h21v21h-21v-21ZM477.2,477.2h21v21h-21v-21ZM498.1,477.2h21v21h-21v-21ZM539.8,477.2h21v21h-21v-21ZM560.6,477.2h21v21h-21v-21ZM581.5,477.2h21v21h-21v-21ZM602.5,477.2h21v21h-21v-21ZM685.9,477.2h21v21h-21v-21ZM706.8,477.2h21v21h-21v-21ZM727.6,477.2h21v21h-21v-21ZM122.4,498.1h21v21h-21v-21ZM143.2,498.1h21v21h-21v-21ZM185.1,498.1h21v21h-21v-21ZM205.8,498.1h21v21h-21v-21ZM247.5,498.1h21v21h-21v-21ZM268.5,498.1h21v21h-21v-21ZM310.2,498.1h21v21h-21v-21ZM331.1,498.1h21v21h-21v-21ZM351.9,498.1h21v21h-21v-21ZM393.8,498.1h21v21h-21v-21ZM456.2,498.1h21v21h-21v-21ZM477.2,498.1h21v21h-21v-21ZM498.1,498.1h21v21h-21v-21ZM539.8,498.1h21v21h-21v-21ZM581.5,498.1h21v21h-21v-21ZM602.5,498.1h21v21h-21v-21ZM644.2,498.1h21v21h-21v-21ZM664.9,498.1h21v21h-21v-21ZM685.9,498.1h21v21h-21v-21ZM727.6,498.1h21v21h-21v-21ZM80.5,518.9h21v21h-21v-21ZM164.1,518.9h21v21h-21v-21ZM226.8,518.9h21v21h-21v-21ZM331.1,518.9h21v21h-21v-21ZM372.8,518.9h21v21h-21v-21ZM414.5,518.9h21v21h-21v-21ZM435.5,518.9h21v21h-21v-21h0ZM456.2,518.9h21v21h-21v-21ZM498.1,518.9h21v21h-21v-21ZM518.9,518.9h21v21h-21v-21ZM560.6,518.9h21v21h-21v-21ZM644.2,518.9h21v21h-21v-21ZM664.9,518.9h21v21h-21v-21ZM80.5,539.8h21v21h-21v-21ZM122.4,539.8h21v21h-21v-21ZM185.1,539.8h21v21h-21v-21ZM205.8,539.8h21v21h-21v-21ZM226.8,539.8h21v21h-21v-21ZM268.5,539.8h21v21h-21v-21ZM331.1,539.8h21v21h-21v-21ZM351.9,539.8h21v21h-21v-21ZM393.8,539.8h21v21h-21v-21ZM414.5,539.8h21v21h-21v-21ZM477.2,539.8h21v21h-21v-21ZM539.8,539.8h21v21h-21v-21ZM644.2,539.8h21v21h-21v-21ZM664.9,539.8h21v21h-21v-21ZM685.9,539.8h21v21h-21v-21ZM706.8,539.8h21v21h-21v-21ZM727.6,539.8h21v21h-21v-21ZM80.5,560.6h21v21h-21v-21ZM164.1,560.6h21v21h-21v-21ZM247.5,560.6h21v21h-21v-21ZM289.4,560.6h21v21h-21v-21ZM310.2,560.6h21v21h-21v-21ZM331.1,560.6h21v21h-21v-21ZM351.9,560.6h21v21h-21v-21ZM414.5,560.6h21v21h-21v-21ZM435.5,560.6h21v21h-21v-21h0ZM498.1,560.6h21v21h-21v-21ZM539.8,560.6h21v21h-21v-21ZM644.2,560.6h21v21h-21v-21ZM664.9,560.6h21v21h-21v-21ZM685.9,560.6h21v21h-21v-21ZM706.8,560.6h21v21h-21v-21ZM80.5,581.5h21v21h-21v-21ZM101.5,581.5h21v21h-21v-21ZM143.2,581.5h21v21h-21v-21ZM164.1,581.5h21v21h-21v-21ZM185.1,581.5h21v21h-21v-21ZM205.8,581.5h21v21h-21v-21ZM226.8,581.5h21v21h-21v-21ZM289.4,581.5h21v21h-21v-21ZM351.9,581.5h21v21h-21v-21ZM414.5,581.5h21v21h-21v-21ZM435.5,581.5h21v21h-21v-21h0ZM560.6,581.5h21v21h-21v-21ZM581.5,581.5h21v21h-21v-21ZM602.5,581.5h21v21h-21v-21ZM623.2,581.5h21v21h-21v-21ZM644.2,581.5h21v21h-21v-21ZM664.9,581.5h21v21h-21v-21ZM685.9,581.5h21v21h-21v-21ZM748.5,581.5h21v21h-21v-21ZM247.5,602.5h21v21h-21v-21ZM331.1,602.5h21v21h-21v-21ZM351.9,602.5h21v21h-21v-21ZM372.8,602.5h21v21h-21v-21ZM393.8,602.5h21v21h-21v-21ZM414.5,602.5h21v21h-21v-21ZM456.2,602.5h21v21h-21v-21ZM518.9,602.5h21v21h-21v-21ZM539.8,602.5h21v21h-21v-21ZM560.6,602.5h21v21h-21v-21ZM581.5,602.5h21v21h-21v-21ZM664.9,602.5h21v21h-21v-21ZM685.9,602.5h21v21h-21v-21ZM748.5,602.5h21v21h-21v-21ZM80.5,623.2h21v21h-21v-21ZM101.5,623.2h21v21h-21v-21ZM122.4,623.2h21v21h-21v-21ZM143.2,623.2h21v21h-21v-21ZM164.1,623.2h21v21h-21v-21ZM185.1,623.2h21v21h-21v-21ZM205.8,623.2h21v21h-21v-21ZM268.5,623.2h21v21h-21v-21ZM372.8,623.2h21v21h-21v-21ZM498.1,623.2h21v21h-21v-21ZM539.8,623.2h21v21h-21v-21ZM560.6,623.2h21v21h-21v-21ZM581.5,623.2h21v21h-21v-21ZM623.2,623.2h21v21h-21v-21ZM664.9,623.2h21v21h-21v-21ZM685.9,623.2h21v21h-21v-21ZM727.6,623.2h21v21h-21v-21ZM80.5,644.2h21v21h-21v-21ZM205.8,644.2h21v21h-21v-21ZM247.5,644.2h21v21h-21v-21ZM268.5,644.2h21v21h-21v-21ZM289.4,644.2h21v21h-21v-21ZM310.2,644.2h21v21h-21v-21ZM351.9,644.2h21v21h-21v-21ZM414.5,644.2h21v21h-21v-21ZM477.2,644.2h21v21h-21v-21ZM498.1,644.2h21v21h-21v-21ZM518.9,644.2h21v21h-21v-21ZM539.8,644.2h21v21h-21v-21ZM560.6,644.2h21v21h-21v-21ZM581.5,644.2h21v21h-21v-21ZM664.9,644.2h21v21h-21v-21ZM685.9,644.2h21v21h-21v-21ZM706.8,644.2h21v21h-21v-21ZM727.6,644.2h21v21h-21v-21ZM80.5,664.9h21v21h-21v-21ZM122.4,664.9h21v21h-21v-21ZM143.2,664.9h21v21h-21v-21ZM164.1,664.9h21v21h-21v-21ZM205.8,664.9h21v21h-21v-21ZM268.5,664.9h21v21h-21v-21ZM310.2,664.9h21v21h-21v-21ZM351.9,664.9h21v21h-21v-21ZM393.8,664.9h21v21h-21v-21ZM414.5,664.9h21v21h-21v-21ZM456.2,664.9h21v21h-21v-21ZM477.2,664.9h21v21h-21v-21ZM498.1,664.9h21v21h-21v-21ZM518.9,664.9h21v21h-21v-21ZM539.8,664.9h21v21h-21v-21ZM581.5,664.9h21v21h-21v-21ZM602.5,664.9h21v21h-21v-21ZM623.2,664.9h21v21h-21v-21ZM644.2,664.9h21v21h-21v-21ZM664.9,664.9h21v21h-21v-21ZM685.9,664.9h21v21h-21v-21ZM727.6,664.9h21v21h-21v-21ZM748.5,664.9h21v21h-21v-21ZM80.5,685.9h21v21h-21v-21ZM122.4,685.9h21v21h-21v-21ZM143.2,685.9h21v21h-21v-21ZM164.1,685.9h21v21h-21v-21ZM205.8,685.9h21v21h-21v-21ZM289.4,685.9h21v21h-21v-21ZM331.1,685.9h21v21h-21v-21ZM372.8,685.9h21v21h-21v-21ZM393.8,685.9h21v21h-21v-21ZM602.5,685.9h21v21h-21v-21ZM644.2,685.9h21v21h-21v-21ZM664.9,685.9h21v21h-21v-21ZM706.8,685.9h21v21h-21v-21ZM748.5,685.9h21v21h-21v-21ZM80.5,706.8h21v21h-21v-21ZM122.4,706.8h21v21h-21v-21ZM143.2,706.8h21v21h-21v-21ZM164.1,706.8h21v21h-21v-21ZM205.8,706.8h21v21h-21v-21ZM268.5,706.8h21v21h-21v-21ZM331.1,706.8h21v21h-21v-21ZM351.9,706.8h21v21h-21v-21ZM393.8,706.8h21v21h-21v-21ZM435.5,706.8h21v21h-21v-21h0ZM456.2,706.8h21v21h-21v-21ZM498.1,706.8h21v21h-21v-21ZM518.9,706.8h21v21h-21v-21ZM664.9,706.8h21v21h-21v-21ZM727.6,706.8h21v21h-21v-21ZM748.5,706.8h21v21h-21v-21ZM80.5,727.6h21v21h-21v-21ZM205.8,727.6h21v21h-21v-21ZM289.4,727.6h21v21h-21v-21ZM351.9,727.6h21v21h-21v-21ZM372.8,727.6h21v21h-21v-21ZM393.8,727.6h21v21h-21v-21ZM414.5,727.6h21v21h-21v-21ZM435.5,727.6h21v21h-21v-21h0ZM456.2,727.6h21v21h-21v-21ZM518.9,727.6h21v21h-21v-21ZM602.5,727.6h21v21h-21v-21ZM623.2,727.6h21v21h-21v-21ZM685.9,727.6h21v21h-21v-21ZM706.8,727.6h21v21h-21v-21ZM80.5,748.5h21v21h-21v-21ZM101.5,748.5h21v21h-21v-21ZM122.4,748.5h21v21h-21v-21ZM143.2,748.5h21v21h-21v-21ZM164.1,748.5h21v21h-21v-21ZM185.1,748.5h21v21h-21v-21ZM205.8,748.5h21v21h-21v-21ZM268.5,748.5h21v21h-21v-21ZM310.2,748.5h21v21h-21v-21ZM372.8,748.5h21v21h-21v-21ZM393.8,748.5h21v21h-21v-21ZM435.5,748.5h21v21h-21v-21h0ZM477.2,748.5h21v21h-21v-21ZM498.1,748.5h21v21h-21v-21ZM560.6,748.5h21v21h-21v-21ZM581.5,748.5h21v21h-21v-21ZM623.2,748.5h21v21h-21v-21ZM727.6,748.5h21v21h-21v-21Z"/>
</svg>