<?xml version="1.0" encoding="UTF-8"?>
<svg id="_레이어_1" data-name=" 레이어 1" xmlns="http://www.w3.org/2000/svg" version="1.1" viewBox="0 0 500 500">
  <defs>
    <style>
      .cls-1 {
        fill: #3c1e1e;
      }

      .cls-1, .cls-2 {
        stroke-width: 0px;
      }

      .cls-2 {
        fill: #fadf38;
      }
    </style>
  </defs>
  <circle class="cls-2" cx="250" cy="250" r="227"/>
  <path class="cls-1" d="M252.1,365.9c-9.6,0-19.2-.4-28.7-1.7-1.4-.2-2.6,0-3.8.9-18.9,13.3-37.8,26.5-57.3,38.9-2.4,1.5-4.8,2.8-7.3,4.2-.9.5-1.8.8-2.8,1-3.1.4-4.9-1.4-4.3-4.5,1.2-5.4,2.8-10.8,4.3-16.1,3.8-13.5,7.7-27,11.6-40.5.3-1.2.2-1.7-1-2.4-18.4-9.3-34.6-21.5-47.9-37.4-13.1-15.7-21.9-33.5-25.1-53.8-3.6-23.2.5-45.2,11.7-65.8,11-20.2,26.8-35.8,45.9-48.2,20.4-13.3,42.8-21.5,66.7-25.8,17.8-3.2,35.7-4,53.7-2.4,33.9,3.1,65.1,13.5,92.7,33.8,18.3,13.5,33,30.1,41.9,51.2,14.3,33.7,11.3,66.4-7.7,97.5-12.2,19.9-29.3,34.9-49.5,46.6-19.2,11.1-39.9,18.2-61.8,21.8-10.4,1.7-20.9,2.7-31.4,2.7h.1Z"/>
  <g>
    <path class="cls-2" d="M327.1,229.9c.4-.5.6-1.1,1.1-1.5,7.9-8,15.9-15.9,23.9-23.9s6.7-3.4,10.2-1.3c3.6,2.2,5.4,6.3,4.3,10-.4,1.4-1.3,2.5-2.3,3.6-6.5,6.5-13,13-19.6,19.5-.9.9-.9,1.4-.1,2.4,7.3,9.6,14.5,19.2,21.7,28.8,3.2,4.2,2.7,9.6-1,12.8-4.1,3.7-10.3,3.1-13.7-1.4-6.5-8.5-12.9-17.1-19.3-25.6-.2-.2-.3-.5-.5-.7-.8-.7-1-2.2-2.1-2.2s-3,3.2-3,4.3v19.2c0,4.5-3.2,8-7.7,8.9-4,.8-8.3-1.5-10-5.3-.6-1.3-.8-2.6-.8-4v-63.4c0-5.3,4.1-9.4,9.3-9.5,5.1,0,9.3,4.1,9.3,9.4v19.5c.2.1.4.3.6.4h-.3Z"/>
    <path class="cls-2" d="M151.5,247.2v-26.5c0-1.4-.2-1.9-1.8-1.9-4.1.1-8.3,0-12.4,0s-9.4-3.8-9.5-9c0-5.2,3.9-9.2,9.4-9.2h47.1c5,0,8.8,3.5,9.3,8.1.5,4.5-2.3,8.6-6.8,9.9-.9.3-1.9.3-2.8.3h-12.4c-1.4,0-1.6.4-1.6,1.7v52.8c0,4.7-2.3,8.1-6.4,9.4-6.2,1.9-12.2-2.4-12.3-8.9v-26.6h.2Z"/>
    <path class="cls-2" d="M256.6,241.5v-31.4c0-4.9,3.5-8.7,8.6-9.3,4.5-.6,8.9,2.5,10.1,7,.3,1.1.3,2.3.3,3.4v51.8c0,1.5.4,1.8,1.8,1.8h18.2c4.7,0,8.5,3.6,8.7,8,.2,4.6-3.4,8.8-8.1,8.9-10.5.1-21,.1-31.4,0-4.5,0-8.1-4-8.1-8.6v-31.6h-.1Z"/>
    <path class="cls-2" d="M250.2,267.7c-3.9-10.2-7.8-20.5-11.7-30.7-3.5-9.1-6.9-18.2-10.4-27.3-2.4-6.1-8.5-9.9-14.4-8.7-5.2,1-8.6,4.3-10.4,9.2-6.3,16.6-12.6,33.2-18.9,49.8-1.5,4-3.3,7.8-4.2,12-1.4,6.7.9,10,7.4,10.9,5,.7,8.3-1.1,10.1-5.8,1.2-3,2.4-6,3.5-9.1.3-.9.8-1.2,1.8-1.2h25.6c1.2,0,1.6.4,2,1.4,1.1,3.1,2.5,6.1,3.5,9.3,1.2,3.9,4,5.3,7.7,5.5,2,.1,3.9-.3,5.8-1,2.6-.9,3.8-2.8,4.1-5.5.3-3.1-.4-6-1.5-8.9h0ZM213.4,250.3h-5.5c-1.2,0-1.4-.2-1-1.3,2.4-6.7,4.7-13.4,7.1-20.1.5-1.5,1.1-3,1.8-5,3.2,9,6.2,17.6,9.3,26.4h-11.7Z"/>
  </g>
</svg>