<?xml version="1.0" encoding="UTF-8"?>
<svg id="_레이어_1" data-name="레이어 1" xmlns="http://www.w3.org/2000/svg" version="1.1" viewBox="0 0 500 500">
  <defs>
    <style>
      .cls-1 {
        fill: #1cc65f;
      }

      .cls-1, .cls-2 {
        stroke-width: 0px;
      }

      .cls-2 {
        fill: #fff;
      }
    </style>
  </defs>
  <circle class="cls-1" cx="250" cy="250" r="227" transform="translate(-103.6 250) rotate(-45)"/>
  <path class="cls-2" d="M404,228.1c0-69.2-69.4-125.5-154.7-125.5s-154.7,56.3-154.7,125.5,55,114,129.4,123.9c5,1.1,11.9,3.3,13.6,7.6,1.6,3.9,1,10,.5,14,0,0-1.8,10.9-2.2,13.2-.7,3.9-3.1,15.3,13.4,8.3,16.5-7,89.1-52.5,121.5-89.8h0c22.4-24.6,33.2-49.5,33.2-77.2"/>
  <g>
    <path class="cls-1" d="M217.8,194.7h-10.9c-1.7,0-3,1.3-3,3v67.4c0,1.7,1.4,3,3,3h10.9c1.7,0,3-1.3,3-3v-67.4c0-1.7-1.4-3-3-3"/>
    <path class="cls-1" d="M292.5,194.7h-10.8c-1.7,0-3,1.3-3,3v40l-30.9-41.7c0-.1-.2-.2-.2-.3,0,0,0,0,0,0,0,0-.1-.1-.2-.2,0,0,0,0,0,0,0,0-.1,0-.2-.1,0,0,0,0,0,0,0,0-.1,0-.2-.1,0,0,0,0,0,0,0,0-.1,0-.2,0,0,0,0,0,0,0,0,0-.1,0-.2,0,0,0,0,0,0,0,0,0-.1,0-.2,0,0,0,0,0-.1,0,0,0-.1,0-.2,0,0,0,0,0-.1,0,0,0-.1,0-.2,0,0,0-.1,0-.2,0,0,0,0,0-.1,0h-10.8c-1.7,0-3,1.3-3,3v67.4c0,1.7,1.4,3,3,3h10.8c1.7,0,3-1.3,3-3v-40l30.9,41.8c.2.3.5.5.8.7,0,0,0,0,0,0,0,0,.1,0,.2.1,0,0,0,0,0,0,0,0,0,0,.1,0,0,0,0,0,.1,0,0,0,0,0,0,0,0,0,.1,0,.2,0,0,0,0,0,0,0,.2,0,.5.1.8.1h10.8c1.7,0,3-1.3,3-3v-67.4c0-1.7-1.3-3-3-3"/>
    <path class="cls-1" d="M191.7,251.2h-29.5v-53.5c0-1.7-1.3-3-3-3h-10.9c-1.7,0-3,1.3-3,3v67.4h0c0,.8.3,1.5.8,2.1,0,0,0,0,0,0,0,0,0,0,0,0,.5.5,1.3.8,2.1.8h43.4c1.7,0,3-1.4,3-3v-10.9c0-1.7-1.3-3-3-3"/>
    <path class="cls-1" d="M352.4,211.6c1.7,0,3-1.3,3-3v-10.8c0-1.7-1.3-3-3-3h-43.4c-.8,0-1.5.3-2.1.8,0,0,0,0,0,0,0,0,0,0,0,0-.5.5-.8,1.3-.8,2.1h0v67.4h0c0,.8.3,1.5.8,2.1,0,0,0,0,0,0,0,0,0,0,0,0,.5.5,1.3.8,2.1.8h43.4c1.7,0,3-1.4,3-3v-10.9c0-1.7-1.3-3-3-3h-29.5v-11.4h29.5c1.7,0,3-1.3,3-3v-10.8c0-1.7-1.3-3-3-3h-29.5v-11.4h29.5Z"/>
  </g>
</svg>