<?xml version="1.0" encoding="UTF-8"?>
<svg id="_레이어_1" data-name="레이어 1" xmlns="http://www.w3.org/2000/svg" version="1.1" viewBox="0 0 500 500">
  <defs>
    <style>
      .cls-1 {
        fill: #fff;
      }

      .cls-1, .cls-2 {
        stroke-width: 0px;
      }

      .cls-2 {
        fill: #30d26e;
      }
    </style>
  </defs>
  <circle class="cls-2" cx="250" cy="250" r="227" transform="translate(-103.6 250) rotate(-45)"/>
  <path class="cls-1" d="M359.2,143.6c-27.2-27.2-63.3-42.2-101.9-42.2-79.4,0-144,64.6-144,143.9,0,25.4,6.6,50.1,19.2,72l-20.4,74.6,76.3-20c21,11.5,44.7,17.5,68.8,17.5h0s0,0,0,0c79.4,0,144-64.6,144-144,0-38.5-14.9-74.6-42.1-101.8ZM257.3,365.1h0c-21.5,0-42.5-5.8-60.9-16.7l-4.4-2.6-45.3,11.9,12.1-44.2-2.8-4.5c-12-19.1-18.3-41.1-18.3-63.7,0-66,53.7-119.6,119.7-119.6,32,0,62,12.5,84.6,35.1,22.6,22.6,35,52.7,35,84.6,0,66-53.7,119.6-119.7,119.6ZM323,275.5c-3.6-1.8-21.3-10.5-24.6-11.7-3.3-1.2-5.7-1.8-8.1,1.8-2.4,3.6-9.3,11.7-11.4,14.1-2.1,2.4-4.2,2.7-7.8.9-3.6-1.8-15.2-5.6-28.9-17.9-10.7-9.5-17.9-21.3-20-24.9-2.1-3.6-.2-5.5,1.6-7.3,1.6-1.6,3.6-4.2,5.4-6.3,1.8-2.1,2.4-3.6,3.6-6,1.2-2.4.6-4.5-.3-6.3-.9-1.8-8.1-19.5-11.1-26.7-2.9-7-5.9-6.1-8.1-6.2-2.1-.1-4.5-.1-6.9-.1s-6.3.9-9.6,4.5c-3.3,3.6-12.6,12.3-12.6,30s12.9,34.8,14.7,37.2c1.8,2.4,25.4,38.7,61.5,54.3,8.6,3.7,15.3,5.9,20.5,7.6,8.6,2.7,16.5,2.4,22.7,1.4,6.9-1,21.3-8.7,24.3-17.1,3-8.4,3-15.6,2.1-17.1-.9-1.5-3.3-2.4-6.9-4.2Z"/>
</svg>