<?xml version="1.0" encoding="UTF-8"?>
<svg id="_레이어_1" data-name="레이어 1" xmlns="http://www.w3.org/2000/svg" version="1.1" xmlns:xlink="http://www.w3.org/1999/xlink" viewBox="0 0 500 500">
  <defs>
    <style>
      .cls-1 {
        fill: url(#_무제_그라디언트_2);
      }

      .cls-1, .cls-2 {
        stroke-width: 0px;
      }

      .cls-2 {
        fill: #fefefe;
      }
    </style>
    <linearGradient id="_무제_그라디언트_2" data-name="무제 그라디언트 2" x1="108.7" y1="65" x2="464.7" y2="531.2" gradientUnits="userSpaceOnUse">
      <stop offset="0" stop-color="#860bfb"/>
      <stop offset=".3" stop-color="#fc01d8"/>
      <stop offset=".6" stop-color="#fe7304"/>
      <stop offset="1" stop-color="#ff0"/>
    </linearGradient>
  </defs>
  <circle class="cls-1" cx="250" cy="250" r="227"/>
  <g>
    <path class="cls-2" d="M250,132.8c38.2,0,42.7.1,57.8.8,13.9.6,21.5,3,26.5,4.9,6.7,2.6,11.4,5.7,16.4,10.7s8.1,9.8,10.7,16.4c2,5,4.3,12.6,4.9,26.5.7,15.1.8,19.6.8,57.8s-.1,42.7-.8,57.8c-.6,13.9-3,21.5-4.9,26.5-2.6,6.7-5.7,11.4-10.7,16.4-5,5-9.8,8.1-16.4,10.7-5,2-12.6,4.3-26.5,4.9-15.1.7-19.6.8-57.8.8s-42.7-.1-57.8-.8c-13.9-.6-21.5-3-26.5-4.9-6.7-2.6-11.4-5.7-16.4-10.7-5-5-8.1-9.8-10.7-16.4-2-5-4.3-12.6-4.9-26.5-.7-15.1-.8-19.6-.8-57.8s.1-42.7.8-57.8c.6-13.9,3-21.5,4.9-26.5,2.6-6.7,5.7-11.4,10.7-16.4,5-5,9.8-8.1,16.4-10.7,5-2,12.6-4.3,26.5-4.9,15.1-.7,19.6-.8,57.8-.8M250,107.1c-38.8,0-43.7.2-58.9.9-15.2.7-25.6,3.1-34.7,6.6-9.4,3.7-17.4,8.5-25.3,16.5-7.9,7.9-12.8,15.9-16.5,25.3-3.5,9.1-5.9,19.5-6.6,34.7-.7,15.2-.9,20.1-.9,58.9s.2,43.7.9,58.9c.7,15.2,3.1,25.6,6.6,34.7,3.7,9.4,8.5,17.4,16.5,25.3,7.9,7.9,15.9,12.8,25.3,16.5,9.1,3.5,19.5,5.9,34.7,6.6,15.2.7,20.1.9,58.9.9s43.7-.2,58.9-.9c15.2-.7,25.6-3.1,34.7-6.6,9.4-3.7,17.4-8.5,25.3-16.5,7.9-7.9,12.8-15.9,16.5-25.3,3.5-9.1,5.9-19.5,6.6-34.7.7-15.2.9-20.1.9-58.9s-.2-43.7-.9-58.9c-.7-15.2-3.1-25.6-6.6-34.7-3.7-9.4-8.5-17.4-16.5-25.3-7.9-7.9-15.9-12.8-25.3-16.5-9.1-3.5-19.5-5.9-34.7-6.6-15.2-.7-20.1-.9-58.9-.9h0Z"/>
    <path class="cls-2" d="M250,176.6c-40.5,0-73.4,32.9-73.4,73.4s32.9,73.4,73.4,73.4,73.4-32.9,73.4-73.4-32.9-73.4-73.4-73.4ZM250,297.6c-26.3,0-47.6-21.3-47.6-47.6s21.3-47.6,47.6-47.6,47.6,21.3,47.6,47.6-21.3,47.6-47.6,47.6Z"/>
    <circle class="cls-2" cx="326.3" cy="173.7" r="17.2"/>
  </g>
</svg>